<svg width="290" height="115" viewBox="0 0 290 115" fill="none" xmlns="http://www.w3.org/2000/svg">
<path fill-rule="evenodd" clip-rule="evenodd" d="M50.912 115L50.9999 114.95L51.0882 115L76.0413 100.729L101.182 86.3577V28.8644L89.8775 35.3276L83.2791 39.4529L68.8637 47.785V60.9364L89.8775 48.8472V69.7756L89.876 69.7762L89.7055 79.6703L50.9999 101.8L12.2949 79.6703L12.1235 69.7762L12.123 69.7756V35.3276L12.2104 35.2778L12.2949 35.3276L50.9999 13.1994L78.2906 28.8019L89.8775 22.1775L51.086 0L50.9999 0.0493395L50.9142 0L0.818115 28.641V86.3577L25.9588 100.729L50.912 115Z" fill="url(#paint0_linear_9696_27097)"/>
<path fill-rule="evenodd" clip-rule="evenodd" d="M21.3005 41.0714L33.5148 48.3177V67.3434L50.9998 77.6955L68.4853 67.3434V63.9598L80.6993 56.7274V74.8255L50.9998 92.4104L21.3005 74.8255V41.0714Z" fill="url(#paint1_linear_9696_27097)"/>
<path d="M166.172 90H154.16L131 31H142.68L160.199 77.9888L177.387 31H189L166.172 90Z" fill="#002270"/>
<path d="M221.856 81.5893C225.831 81.5893 228.66 80.7936 231.557 79.4674V58.646H242V86.1647C236.273 89.6791 229.873 92 221.721 92C205.35 92 191 79.9315 191 61.0332C191 42.1348 205.215 30 221.789 30C228.795 30 235.061 31.7241 239.911 34.4428V45.6492C234.657 42.0684 228.66 40.5433 223.001 40.5433C211.144 40.5433 202.588 49.2299 202.588 61.1658C202.588 73.1016 211.009 81.5893 221.923 81.5893H221.856Z" fill="#002270"/>
<path d="M286.521 33.9313V44.2836C282.508 41.4662 276.822 39.8281 271.938 39.8281C266.386 39.8281 262.172 42.1869 262.172 46.5113C262.172 50.5081 265.784 52.4082 272.674 55.2256C281.37 58.7637 290 62.4329 290 73.1128C290 83.7927 281.17 91 268.727 91C261.436 91 254.947 88.5102 251 85.6273V74.5542C255.148 78.42 261.569 81.1719 267.791 81.1719C274.012 81.1719 278.494 78.2889 278.494 73.4404C278.494 69.0505 274.213 66.8883 267.189 63.9398C259.295 60.7293 251.067 56.9291 251.067 46.9044C251.067 36.8797 259.362 30 271.403 30C277.357 30 282.708 31.638 286.588 33.9313H286.521Z" fill="#002270"/>
<defs>
<linearGradient id="paint0_linear_9696_27097" x1="79.5266" y1="8.03551" x2="44.1572" y2="115.593" gradientUnits="userSpaceOnUse">
<stop stop-color="#7266B5"/>
<stop offset="0.114583" stop-color="#8779D5"/>
<stop offset="0.26092" stop-color="#4B91E1"/>
<stop offset="0.765625" stop-color="#41D8F1"/>
<stop offset="1" stop-color="#81ECD3"/>
</linearGradient>
<linearGradient id="paint1_linear_9696_27097" x1="67.883" y1="44.6587" x2="55.4497" y2="94.7833" gradientUnits="userSpaceOnUse">
<stop stop-color="#7266B5"/>
<stop offset="0.114583" stop-color="#8779D5"/>
<stop offset="0.26092" stop-color="#4B91E1"/>
<stop offset="0.765625" stop-color="#41D8F1"/>
<stop offset="1" stop-color="#81ECD3"/>
</linearGradient>
</defs>
</svg>
